<svg t="1638421173680" class="icon" viewBox="0 0 1024 1024" version="1.1" xmlns="http://www.w3.org/2000/svg" p-id="902" width="32" height="32"><path d="M664.144969 270.69644l2.544441 4.584578 91.874954 208.265941h59.370292a28.470233 28.470233 0 0 1 28.034698 23.335505l0.458458 5.111805a28.44731 28.44731 0 0 1-23.381351 27.988852l-5.111805 0.458458h-77.937835a28.470233 28.470233 0 0 1-23.748117-12.779513l-2.292289-4.183427-71.313119-161.606394-104.069933 275.601939c-8.298087 21.960131-37.387238 24.493111-49.903137 6.315257l-2.578825-4.584579-45.032023-98.809129H398.972947a28.412925 28.412925 0 0 1-22.750971-11.369754l-2.796593-4.584579-30.441601-61.983502-33.410116 62.900418a28.470233 28.470233 0 0 1-19.942917 14.613344l-5.169112 0.469919h-85.433621a28.44731 28.44731 0 0 1-5.111805-56.436162l5.111805-0.458458h68.298758l51.576509-96.952374c10.06315-18.911386 36.011864-19.954378 47.966153-3.598894l2.69344 4.447041 47.049237 96.104227h42.682426a28.424387 28.424387 0 0 1 23.564734 12.527361l2.292289 4.11466 24.286805 53.284264 104.620082-276.690776c8.412702-22.143514 37.708158-24.504572 50.08652-6.086028z m132.299475-173.984756H227.555556a130.855333 130.855333 0 0 0-130.545874 121.881021l-0.297998 8.962851v398.216491a130.855333 130.855333 0 0 0 121.892482 130.545874l8.95139 0.297997h568.888888a130.855333 130.855333 0 0 0 130.545874-121.88102l0.297998-8.962851V227.555556a130.855333 130.855333 0 0 0-121.881021-130.545874z m0-96.711684c125.674759 0 227.555556 101.880796 227.555556 227.555556v398.216491c0 125.674759-101.880796 227.521171-227.555556 227.521171H227.555556C101.880796 853.293218 0 751.446806 0 625.772047V227.555556C0 101.880796 101.880796 0 227.555556 0z m65.421936 927.288316a48.355842 48.355842 0 0 1 0 96.711684H162.13362a48.355842 48.355842 0 1 1 0-96.711684z" p-id="903" fill="#ffffff"></path></svg>